<?xml version="1.0" standalone="no"?>
<!DOCTYPE svg PUBLIC "-//W3C//DTD SVG 20010904//EN"
 "http://www.w3.org/TR/2001/REC-SVG-20010904/DTD/svg10.dtd">
<svg version="1.0" xmlns="http://www.w3.org/2000/svg"
 width="300.000000pt" height="303.000000pt" viewBox="0 0 300.000000 303.000000"
 preserveAspectRatio="xMidYMid meet">
<metadata>
Created by potrace 1.10, written by Peter Selinger 2001-2011
</metadata>
<g transform="translate(0.000000,303.000000) scale(0.100000,-0.100000)"
fill="#000000" stroke="none">
<path d="M1363 2286 c-21 -18 -67 -48 -103 -66 -88 -44 -111 -76 -32 -45 33
14 45 14 64 4 30 -16 40 -32 25 -41 -17 -11 -29 -10 -22 2 10 16 1 12 -67 -29
-36 -22 -77 -41 -93 -43 l-27 -3 20 -25 c19 -23 21 -24 39 -9 50 44 115 72
169 72 53 0 85 -14 81 -36 -1 -6 17 -15 41 -20 23 -6 42 -14 42 -18 0 -15 22
-10 36 9 19 24 17 32 -7 32 -24 0 -139 60 -139 72 0 5 -12 5 -26 2 -22 -6 -25
-4 -18 8 5 9 24 28 42 43 17 15 32 33 32 40 0 8 11 22 25 33 l25 20 -25 16
c-34 22 -40 21 -82 -18z"/>
<path d="M1976 2071 c-14 -15 -17 -31 -12 -73 3 -29 5 -57 6 -61 0 -5 5 -5 10
-2 6 3 10 1 10 -6 0 -7 3 -9 6 -6 6 6 64 -65 64 -78 0 -3 -7 -5 -16 -5 -8 0
-12 5 -8 11 4 8 0 8 -15 0 -11 -7 -21 -16 -21 -21 0 -15 -60 -42 -77 -36 -13
6 -13 9 1 31 15 23 13 29 -7 26 -13 -2 -137 70 -137 80 0 15 -22 10 -36 -8
-19 -25 -17 -33 5 -33 22 0 136 -64 148 -83 4 -6 8 -27 9 -45 1 -46 18 -54 96
-48 62 4 68 3 74 -17 3 -12 15 -31 25 -43 14 -15 19 -32 17 -60 -3 -35 -6 -39
-29 -36 -15 2 -32 -4 -40 -14 -13 -16 -12 -17 10 -11 14 3 31 1 38 -5 10 -8
17 -6 28 8 13 16 16 17 25 4 7 -11 4 -19 -15 -33 -25 -18 -35 -57 -15 -57 6 0
10 6 10 13 0 8 9 22 20 32 16 15 22 15 35 5 11 -9 15 -35 15 -106 0 -84 2 -96
23 -116 59 -59 61 -64 41 -96 -17 -30 -51 -52 -80 -52 -25 0 -64 -31 -64 -52
0 -14 5 -18 15 -14 8 3 20 -1 28 -8 11 -12 19 -11 48 1 19 9 50 18 69 22 34 6
35 8 41 62 3 31 9 61 13 67 3 6 0 26 -8 44 -8 18 -17 46 -21 61 -4 22 -9 26
-18 18 -7 -5 -18 -6 -25 -2 -21 13 7 29 63 36 l50 6 25 -41 c14 -23 37 -48 52
-56 15 -8 29 -23 33 -34 10 -31 -23 -118 -52 -137 -16 -11 -20 -18 -13 -23 8
-5 9 -10 2 -14 -5 -3 -13 2 -16 11 -6 14 -10 13 -31 -7 -31 -29 -32 -40 -3
-32 15 3 19 2 14 -7 -6 -8 -1 -10 18 -5 15 3 26 2 26 -4 0 -10 14 -7 72 14 51
18 50 277 -1 308 -5 4 -11 2 -13 -4 -1 -5 -8 -6 -15 -2 -24 15 5 32 74 42 98
14 202 -16 276 -78 32 -28 29 -4 -5 32 -41 44 -146 108 -167 102 -9 -3 -32 4
-51 14 -42 23 -32 27 11 4 17 -8 33 -13 36 -11 2 3 -25 20 -61 37 -50 25 -75
45 -101 82 -22 31 -40 46 -48 42 -7 -4 -9 -4 -5 0 11 12 -80 129 -115 149 -34
18 -62 23 -53 8 7 -11 -22 -23 -35 -15 -5 3 -7 10 -3 15 3 5 -2 22 -12 37 -10
15 -17 42 -15 62 3 55 -19 118 -45 124 -12 3 -41 28 -64 56 -46 56 -83 65
-114 31z m98 -81 c22 -22 43 -40 48 -40 15 0 38 -60 38 -100 0 -73 38 -123
104 -135 43 -7 41 -6 167 -158 44 -53 95 -105 112 -114 l32 -16 -50 -13 c-30
-8 -58 -23 -70 -38 l-20 -25 -29 26 c-26 22 -36 25 -79 19 -27 -3 -57 -12 -67
-21 -24 -22 -26 -20 -22 30 5 62 -2 84 -43 128 -22 24 -35 48 -35 65 0 15 -18
55 -40 90 -38 59 -41 62 -80 62 -22 0 -40 4 -40 8 0 4 18 26 40 47 47 46 47
67 -1 127 -16 21 -32 51 -35 68 -9 44 21 40 70 -10z"/>
<path d="M1081 2046 c-20 -24 -116 -76 -140 -76 -24 0 -26 -8 -7 -32 14 -19
36 -24 36 -9 0 14 110 71 137 71 28 0 29 10 5 40 -16 20 -19 21 -31 6z"/>
<path d="M1552 2038 c-17 -17 -15 -38 3 -38 22 0 112 -47 135 -70 19 -19 19
-19 41 11 20 29 21 31 3 27 -22 -5 -83 23 -131 58 -37 28 -35 28 -51 12z"/>
<path d="M1383 2006 c-15 -13 -25 -27 -21 -31 3 -4 16 3 28 15 l22 22 22 -21
c12 -12 25 -21 29 -21 13 0 -5 29 -28 44 -22 15 -26 14 -52 -8z"/>
<path d="M1408 1984 c-5 -4 -8 -37 -8 -73 1 -50 3 -62 11 -48 11 19 8 133 -3
121z"/>
<path d="M1077 1965 c2 -7 -5 -28 -16 -46 -12 -19 -21 -41 -21 -49 0 -9 8 -3
18 13 20 32 32 35 32 8 0 -11 5 -23 10 -26 6 -4 10 11 10 39 0 38 3 45 22 48
17 2 12 6 -19 14 -32 8 -40 8 -36 -1z"/>
<path d="M884 1936 c-7 -18 -115 -76 -142 -76 -18 0 -19 -3 -9 -25 12 -25 31
-33 42 -16 10 17 112 71 134 71 24 0 25 1 9 35 -12 28 -26 32 -34 11z"/>
<path d="M1164 1918 c7 -36 32 -78 46 -78 5 0 2 16 -7 35 -20 41 -13 51 24 37
43 -16 93 -23 93 -12 0 9 -119 50 -147 50 -12 0 -14 -7 -9 -32z"/>
<path d="M983 1913 c-24 -5 -30 -18 -14 -28 6 -3 9 -23 9 -45 0 -22 4 -46 10
-53 14 -17 62 -328 55 -355 -5 -22 2 -23 66 -13 2 1 -3 9 -11 19 -21 23 -33
92 -17 92 7 0 9 3 6 7 -4 3 -2 12 4 20 9 10 8 13 -4 13 -25 0 -40 58 -53 219
-3 29 -9 61 -14 71 -5 9 -6 26 -3 38 3 12 1 21 -3 21 -5 -1 -19 -4 -31 -6z"/>
<path d="M1608 1885 c2 -14 0 -31 -5 -38 -6 -6 -9 -25 -8 -42 3 -43 -51 -355
-64 -368 -18 -18 -12 -27 19 -27 27 0 30 3 30 33 0 17 9 84 20 147 28 165 32
184 42 197 5 7 7 17 3 23 -3 5 -2 10 4 10 6 0 8 12 5 29 -4 16 -1 32 5 35 21
14 11 26 -23 26 -30 0 -33 -2 -28 -25z"/>
<path d="M1385 1647 c0 -131 -4 -188 -13 -205 -13 -23 -12 -23 20 -20 23 2 32
7 29 18 -12 47 -7 55 41 60 61 7 73 20 19 20 l-42 0 28 25 c15 13 23 25 17 25
-6 0 -23 -11 -38 -25 -28 -26 -42 -33 -31 -15 4 6 6 63 6 127 -1 86 2 122 13
138 18 27 12 35 -23 35 l-26 0 0 -183z"/>
<path d="M826 1801 c-3 -5 1 -14 8 -20 9 -7 17 -43 22 -89 3 -42 12 -80 18
-84 8 -6 7 -11 -4 -18 -11 -7 -12 -12 -3 -18 16 -10 35 -97 31 -142 -2 -23 1
-35 10 -34 6 1 21 2 32 3 19 1 19 3 5 25 -10 14 -16 50 -18 94 -1 50 -6 72
-14 72 -7 0 -13 4 -13 9 0 5 6 11 13 14 9 3 7 9 -6 24 -13 15 -18 40 -20 96
-2 76 -2 77 -29 77 -15 0 -29 -4 -32 -9z"/>
<path d="M1756 1728 c-4 -54 -12 -89 -23 -100 -13 -15 -13 -18 -2 -18 9 0 10
-3 3 -8 -6 -4 -14 -41 -18 -82 -3 -41 -13 -85 -22 -97 -13 -21 -13 -23 6 -24
11 -1 26 -2 33 -3 8 -1 12 13 12 39 2 89 6 114 22 131 13 13 14 19 5 22 -17 5
-15 22 2 22 9 0 12 7 9 20 -7 26 17 150 28 150 5 0 9 7 9 15 0 10 -10 15 -29
15 -28 0 -28 0 -35 -82z"/>
<path d="M1180 1772 c0 -4 5 -13 12 -20 7 -7 13 -45 15 -85 1 -39 3 -74 4 -77
1 -3 1 -12 0 -22 -1 -9 3 -19 9 -23 5 -3 10 -40 10 -81 0 -73 0 -74 26 -74 21
0 25 3 18 18 -5 9 -9 52 -9 95 0 62 -3 77 -15 77 -13 0 -13 1 0 10 12 7 12 12
2 22 -7 7 -12 41 -12 90 l0 78 -30 0 c-16 0 -30 -4 -30 -8z"/>
<path d="M1489 1707 c-36 -45 -61 -96 -53 -108 8 -14 92 -6 107 11 9 9 1 11
-40 5 l-53 -7 35 52 c29 43 44 80 33 80 -2 0 -15 -15 -29 -33z"/>
<path d="M1098 1658 c-30 -47 -30 -58 2 -58 16 0 32 5 36 12 5 8 0 9 -14 6
-26 -7 -26 -6 -7 32 18 35 4 41 -17 8z"/>
<path d="M1885 1637 c-35 -46 -75 -113 -75 -124 0 -14 56 -18 98 -7 41 12 24
27 -23 20 -25 -4 -45 -4 -45 -1 0 4 11 21 24 38 14 18 28 44 31 60 8 30 5 34
-10 14z"/>
<path d="M629 1574 c-25 -12 -62 -43 -82 -68 -37 -45 -93 -73 -123 -62 -8 3
-37 1 -64 -5 -38 -8 -56 -19 -74 -42 -38 -50 -41 -78 -13 -134 l25 -49 -29
-42 c-34 -50 -34 -50 -11 -78 16 -19 29 -22 100 -22 64 0 82 3 82 14 0 8 -9
14 -19 14 -23 0 -27 11 -26 80 l0 55 61 5 c41 3 69 11 83 24 18 17 21 17 36 2
15 -15 15 -16 -3 -16 -27 0 -34 -24 -27 -85 6 -42 4 -55 -11 -69 -17 -17 -16
-18 27 -15 34 3 44 1 44 -11 0 -15 32 -16 48 0 5 4 17 45 27 90 16 73 17 87 4
123 -9 26 -12 57 -8 88 6 46 7 48 35 42 24 -4 30 -1 38 18 5 13 5 31 1 39 -4
8 -5 20 -3 26 4 13 -54 105 -65 103 -4 -1 -28 -12 -53 -25z m59 -56 c5 -7 13
-23 16 -35 6 -18 2 -25 -17 -34 -46 -21 -64 -92 -43 -174 11 -40 11 -58 0 -97
-7 -27 -13 -52 -13 -56 -1 -4 -9 -7 -18 -7 -24 0 -38 60 -24 107 20 64 -15 97
-71 67 -12 -6 -44 -13 -71 -15 -68 -4 -91 -28 -92 -91 0 -56 -9 -73 -36 -73
-24 0 -24 11 1 60 l20 40 -20 40 c-27 52 -25 84 5 115 20 20 36 25 73 25 76 0
117 17 169 69 68 69 100 84 121 59z"/>
<path d="M1772 1464 c-13 -20 -19 -33 -13 -30 6 4 27 -11 47 -34 45 -49 65
-53 28 -5 l-26 35 31 -6 c18 -4 31 -2 31 3 0 6 -18 13 -41 17 -38 6 -41 9 -35
31 8 33 5 31 -22 -11z"/>
<path d="M1365 1381 c-3 -5 -1 -12 5 -16 13 -8 13 -131 0 -156 -9 -16 -7 -19
10 -19 11 0 23 -1 27 -2 3 -2 6 35 7 82 1 47 5 93 10 103 7 14 3 17 -22 17
-17 0 -33 -4 -37 -9z"/>
<path d="M1050 1365 c0 -8 4 -15 9 -15 9 0 24 -87 24 -142 0 -24 4 -28 29 -28
27 0 37 13 19 24 -10 7 -27 119 -23 154 2 18 -2 22 -28 22 -20 0 -30 -5 -30
-15z"/>
<path d="M1514 1338 c-2 -68 -10 -118 -23 -131 -19 -19 -13 -27 20 -27 22 0
30 4 26 13 -7 19 17 143 31 160 15 18 6 27 -27 27 -24 0 -26 -4 -27 -42z"/>
<path d="M890 1364 c0 -3 6 -12 14 -19 13 -14 32 -122 27 -157 -2 -13 5 -18
23 -18 26 0 43 15 27 24 -12 8 -33 133 -26 157 5 16 1 19 -29 19 -20 0 -36 -3
-36 -6z"/>
<path d="M1220 1362 c0 -4 4 -12 10 -18 5 -5 11 -44 12 -87 3 -82 1 -80 57
-68 2 1 -2 7 -8 15 -6 7 -12 48 -14 90 -2 76 -2 76 -29 76 -16 0 -28 -4 -28
-8z"/>
<path d="M1684 1354 c8 -21 -12 -135 -27 -152 -12 -16 6 -32 36 -32 13 0 17 7
15 23 -5 44 14 148 28 154 23 8 5 23 -28 23 -24 0 -29 -3 -24 -16z"/>
<path d="M766 1152 c16 -16 95 -42 163 -56 119 -25 228 -29 369 -12 235 28
402 16 525 -36 26 -12 50 -18 53 -15 10 10 -78 59 -151 86 -60 21 -86 25 -185
25 -82 -1 -101 1 -65 6 l50 7 -58 1 c-32 1 -56 -1 -54 -5 3 -5 -23 -8 -56 -9
-34 -1 -145 -5 -247 -9 -154 -6 -198 -5 -264 9 -90 19 -93 19 -80 8z m392 -39
c-21 -2 -55 -2 -75 0 -21 2 -4 4 37 4 41 0 58 -2 38 -4z"/>
<path d="M152 978 c-17 -17 -15 -64 4 -82 27 -27 94 -13 94 19 0 17 -26 20
-35 5 -14 -22 -35 -10 -35 20 0 32 9 37 40 18 22 -14 35 -6 27 17 -8 18 -77
21 -95 3z"/>
<path d="M270 955 c0 -38 28 -75 58 -75 36 0 62 29 62 71 0 32 -3 39 -20 39
-17 0 -20 -7 -20 -40 0 -33 -3 -40 -20 -40 -17 0 -20 7 -20 40 0 33 -3 40 -20
40 -16 0 -20 -7 -20 -35z"/>
<path d="M422 978 c-17 -17 -15 -64 3 -82 11 -10 31 -15 60 -14 42 2 45 4 45
30 0 24 -4 28 -30 28 -30 0 -41 -14 -17 -23 6 -3 2 -6 -10 -6 -18 -1 -23 4
-23 24 0 30 20 41 48 26 23 -12 36 -3 21 16 -14 16 -81 17 -97 1z"/>
<path d="M562 978 c-33 -33 0 -98 50 -98 46 0 78 66 46 98 -16 16 -80 16 -96
0z m72 -23 c8 -22 -4 -45 -24 -45 -20 0 -32 23 -24 45 4 8 14 15 24 15 10 0
20 -7 24 -15z"/>
<path d="M692 938 c2 -39 7 -53 18 -53 10 0 14 8 13 23 -4 29 8 28 36 -4 31
-36 46 -26 49 34 3 48 1 52 -19 52 -19 0 -21 -4 -16 -35 3 -21 2 -33 -4 -30
-5 4 -9 12 -9 19 0 18 -33 46 -54 46 -14 0 -17 -8 -14 -52z"/>
<path d="M888 934 c3 -44 7 -54 19 -50 8 3 30 6 49 6 37 0 58 25 34 40 -11 7
-11 11 -1 24 20 24 4 36 -52 36 l-52 0 3 -56z"/>
<path d="M1027 939 c-21 -58 -17 -68 18 -49 20 11 30 11 51 1 15 -6 29 -10 31
-7 2 2 -4 27 -14 55 -15 43 -22 51 -43 51 -21 0 -28 -8 -43 -51z"/>
<path d="M1148 936 c3 -42 7 -53 18 -49 8 3 14 15 15 27 0 21 0 21 9 -1 5 -13
16 -23 24 -23 7 0 17 10 21 23 l8 22 4 -22 c8 -43 31 -26 35 27 3 48 2 50 -23
50 -23 0 -28 -6 -34 -37 l-8 -38 -10 38 c-7 31 -13 37 -35 37 -26 0 -27 -1
-24 -54z"/>
<path d="M1305 940 l0 -50 52 0 c52 0 74 13 55 32 -6 6 -8 24 -5 39 l6 29 -54
0 -54 0 0 -50z"/>
<path d="M1438 965 c-24 -53 32 -102 88 -76 19 8 24 18 24 50 0 43 -10 51 -66
51 -27 0 -37 -5 -46 -25z m77 -25 c0 -18 -6 -26 -22 -28 -18 -3 -23 1 -23 21
0 28 9 39 30 35 9 -2 15 -14 15 -28z"/>
<path d="M1580 971 c-5 -11 -10 -27 -10 -35 0 -24 37 -56 65 -56 51 0 83 61
49 94 -23 23 -91 21 -104 -3z m75 -31 c0 -18 -6 -26 -22 -28 -18 -3 -23 1 -23
21 0 28 9 39 30 35 9 -2 15 -14 15 -28z"/>
<path d="M1770 934 c0 -47 3 -55 17 -52 9 2 20 14 23 27 l6 24 17 -26 c10 -15
24 -27 32 -27 17 0 19 9 6 29 -6 9 -5 21 1 31 21 33 3 50 -52 50 l-50 0 0 -56z
m75 15 c2 -12 -3 -15 -16 -12 -10 3 -19 12 -19 20 0 20 32 12 35 -8z"/>
<path d="M1902 939 l3 -51 48 -3 c36 -2 47 1 47 12 0 11 -8 14 -30 11 -20 -3
-30 0 -30 9 0 7 11 13 25 13 14 0 25 5 25 11 0 7 -11 9 -30 6 -23 -5 -28 -3
-23 8 3 9 18 15 34 15 16 0 29 5 29 10 0 6 -23 10 -51 10 l-50 0 3 -51z"/>
<path d="M2027 984 c-18 -19 -5 -43 29 -54 23 -8 32 -16 26 -22 -6 -6 -17 -5
-30 3 -25 16 -40 5 -22 -16 15 -18 61 -20 78 -3 7 7 12 20 12 30 0 18 -9 22
-42 19 -11 -2 -18 5 -18 14 0 13 6 15 31 10 24 -6 30 -4 27 6 -5 15 -79 25
-91 13z"/>
<path d="M2152 978 c-33 -33 0 -98 50 -98 46 0 78 66 46 98 -16 16 -80 16 -96
0z m72 -23 c8 -23 -4 -45 -25 -45 -13 0 -19 7 -19 23 0 37 32 53 44 22z"/>
<path d="M2282 938 c2 -41 7 -54 21 -56 13 -3 17 3 17 25 l1 28 20 -27 c11
-16 30 -28 41 -28 19 0 19 2 6 23 -11 16 -12 27 -5 38 20 32 1 49 -53 49 l-51
0 3 -52z m73 11 c2 -12 -3 -15 -16 -12 -10 3 -19 12 -19 20 0 20 32 12 35 -8z"/>
<path d="M2410 974 c0 -10 6 -14 15 -10 12 4 15 -4 15 -39 0 -38 3 -45 20 -45
17 0 20 7 20 40 0 33 3 40 20 40 11 0 20 7 20 15 0 12 -13 15 -55 15 -44 0
-55 -3 -55 -16z"/>
<path d="M1127 813 c-11 -10 -8 -123 3 -123 6 0 10 28 10 65 0 65 -1 71 -13
58z"/>
<path d="M710 765 c0 -33 4 -45 15 -45 8 0 15 7 15 15 0 8 7 15 15 15 8 0 15
-7 15 -15 0 -8 6 -15 13 -15 8 0 12 16 13 45 1 47 -19 64 -29 25 -3 -11 -10
-20 -16 -20 -6 0 -11 9 -11 20 0 11 -7 20 -15 20 -11 0 -15 -12 -15 -45z"/>
<path d="M902 798 c-16 -20 -3 -78 18 -78 15 0 19 25 11 83 -2 11 -17 8 -29
-5z"/>
<path d="M1040 765 c0 -25 4 -45 9 -45 5 0 11 20 13 45 2 31 -1 45 -9 45 -9 0
-13 -16 -13 -45z"/>
<path d="M1200 766 c0 -34 4 -46 15 -46 8 0 15 8 15 18 1 16 1 16 14 0 22 -29
33 -21 32 25 -1 41 -2 42 -38 45 l-38 3 0 -45z"/>
<path d="M1464 786 c-8 -34 -1 -60 17 -64 14 -3 18 24 10 81 -2 17 -21 5 -27
-17z"/>
<path d="M1916 793 c-10 -39 -2 -68 22 -71 21 -3 22 -2 10 19 -10 17 -10 23
-1 26 10 3 10 9 0 24 -15 24 -24 24 -31 2z"/>
<path d="M821 776 c-21 -26 -9 -51 24 -51 27 0 30 3 30 30 0 23 -5 31 -21 33
-11 2 -26 -4 -33 -12z"/>
<path d="M961 776 c-22 -26 -9 -51 27 -54 32 -3 33 -2 30 30 -2 25 -8 34 -24
36 -11 2 -26 -4 -33 -12z"/>
<path d="M1304 776 c-12 -31 0 -51 31 -51 24 0 31 5 33 24 6 36 -51 60 -64 27z"/>
<path d="M1385 780 c-8 -14 3 -30 21 -30 8 0 14 -4 14 -9 0 -5 -10 -7 -22 -4
-18 4 -20 3 -12 -6 14 -15 56 -11 62 7 2 6 -7 16 -20 21 -18 8 -19 10 -5 10
24 1 11 21 -13 21 -10 0 -22 -4 -25 -10z"/>
<path d="M1525 780 c-3 -5 4 -10 17 -11 23 -1 22 -1 -2 -8 -39 -11 -31 -35 13
-39 37 -3 38 -3 31 25 -4 15 -9 31 -11 36 -6 10 -41 9 -48 -3z"/>
<path d="M1602 758 c3 -29 7 -33 36 -36 31 -3 32 -2 32 32 0 25 -4 36 -15 36
-9 0 -15 -10 -15 -26 0 -15 -4 -23 -10 -19 -6 4 -8 15 -5 26 5 13 2 19 -10 19
-12 0 -16 -8 -13 -32z"/>
<path d="M1688 754 c5 -38 19 -46 24 -11 2 17 10 22 38 24 30 2 32 1 13 -7
-38 -16 -29 -40 16 -40 38 0 38 0 32 33 -7 32 -8 32 -67 34 l-60 2 4 -35z"/>
<path d="M1830 753 c0 -18 5 -33 10 -33 6 0 10 11 10 25 0 14 5 25 10 25 6 0
10 -11 10 -25 0 -16 6 -25 15 -25 16 0 18 12 9 47 -5 16 -13 21 -35 21 -26 -1
-29 -4 -29 -35z"/>
</g>
</svg>
